<svg width="17" height="17" viewBox="0 0 17 17" fill="none" xmlns="http://www.w3.org/2000/svg">
<path d="M13.8737 13.0235L9.12293 10.9364C8.97624 10.8753 8.81163 10.8733 8.66347 10.9307C8.51532 10.9881 8.39507 11.1005 8.32782 11.2445L8.06444 11.8507C8.03462 11.9153 8.00978 11.9799 7.98493 12.0445C7.27744 11.5327 6.61267 10.9644 5.99716 10.345C5.37502 9.73065 4.8049 9.06578 4.29264 8.35722L4.50136 8.27274L5.10763 8.00439C5.24482 7.93577 5.35029 7.81692 5.40212 7.67254C5.45394 7.52816 5.44814 7.36937 5.38592 7.22916L3.29379 2.48336C3.22931 2.3403 3.11269 2.22723 2.96771 2.1672C2.82273 2.10718 2.66032 2.10473 2.51359 2.16034L1.91229 2.42372C1.39992 2.65649 0.966898 3.03416 0.666652 3.51014C0.366405 3.98612 0.212068 4.53958 0.222681 5.10225C0.252497 7.6615 1.55946 10.4742 3.70128 12.6309C5.8431 14.7877 8.67071 16.1095 11.2349 16.1095H11.2648C11.8274 16.1201 12.3809 15.9658 12.8569 15.6656C13.3328 15.3653 13.7105 14.9323 13.9433 14.4199L14.2067 13.8137C14.2663 13.6671 14.2663 13.503 14.2067 13.3565C14.1441 13.2058 14.0244 13.086 13.8737 13.0235ZM13.2028 14.1069C13.0343 14.4768 12.7618 14.7898 12.4186 15.0077C12.0754 15.2256 11.6762 15.3391 11.2697 15.3343V15.7219V15.3343C8.90924 15.3343 6.30029 14.0969 4.27277 12.0793C2.24524 10.0617 1.0327 7.45279 1.00785 5.12212C0.996448 4.71171 1.10635 4.30704 1.32379 3.95877C1.54124 3.6105 1.85657 3.33411 2.23033 3.16417L2.67261 2.96539L4.6256 7.38818L4.18332 7.58696C4.00117 7.66539 3.80872 7.71727 3.61183 7.74101C3.5461 7.74923 3.48357 7.77415 3.43022 7.81341C3.37686 7.85266 3.33445 7.90493 3.30704 7.96524C3.27963 8.02554 3.26813 8.09187 3.27364 8.15788C3.27915 8.22389 3.30148 8.28739 3.33851 8.34231C4.57894 10.2023 6.17698 11.797 8.03959 13.0335C8.09492 13.0699 8.15856 13.0917 8.2246 13.0969C8.29063 13.1021 8.35691 13.0906 8.41727 13.0633C8.47644 13.0348 8.52775 12.9923 8.56673 12.9395C8.60571 12.8866 8.63117 12.8251 8.64089 12.7601C8.66401 12.5631 8.71592 12.3706 8.79495 12.1887L8.97385 11.7016L13.3966 13.6894L13.2028 14.1069Z" fill="#000222" stroke="#000222" stroke-width="0.233333"/>
<path d="M14.2173 2.02625C13.3768 1.19438 12.3171 0.618608 11.1618 0.366085C10.0066 0.113562 8.8033 0.194695 7.69239 0.600024C7.59552 0.638245 7.5178 0.713383 7.47633 0.808907C7.43486 0.904432 7.43303 1.01252 7.47125 1.10939C7.50947 1.20626 7.58461 1.28398 7.68013 1.32545C7.77566 1.36693 7.88375 1.36875 7.98062 1.33053C8.56986 1.11484 9.19184 1.00221 9.81931 0.997578C11.2668 0.997497 12.6566 1.56484 13.6905 2.57786C14.4218 3.30919 14.932 4.23204 15.1623 5.24033C15.3926 6.24863 15.3338 7.30145 14.9925 8.27779C14.9744 8.3257 14.9661 8.37674 14.9681 8.42791C14.9701 8.47907 14.9824 8.52931 15.0042 8.57565C15.026 8.62199 15.0568 8.66349 15.0949 8.69769C15.133 8.73188 15.1776 8.75808 15.226 8.77473C15.2689 8.78136 15.3124 8.78136 15.3553 8.77473C15.4366 8.77562 15.5161 8.75056 15.5822 8.7032C15.6483 8.65584 15.6976 8.58864 15.723 8.51136C15.9618 7.83463 16.0829 7.12195 16.0808 6.40432C16.0742 5.58773 15.9062 4.78051 15.5863 4.02913C15.2665 3.27776 14.8012 2.59707 14.2173 2.02625Z" fill="#000222" stroke="#000222" stroke-width="0.233333"/>
<path d="M7.78607 3.68641C8.19265 3.53964 8.62104 3.46236 9.05328 3.45782H9.07812C10.0711 3.45913 11.0231 3.85347 11.7262 4.55466C12.4292 5.25585 12.8261 6.20686 12.83 7.1998C12.8318 7.63294 12.7595 8.06319 12.6164 8.47197C12.599 8.51993 12.5912 8.57085 12.5936 8.62181C12.5959 8.67277 12.6083 8.72277 12.63 8.76893C12.6517 8.8151 12.6823 8.85653 12.72 8.89085C12.7578 8.92517 12.8019 8.9517 12.8499 8.96892C12.8944 8.97598 12.9396 8.97598 12.9841 8.96892C13.0628 8.96982 13.1398 8.94646 13.2047 8.90199C13.2696 8.85753 13.3193 8.79414 13.3469 8.72045C13.5913 8.03494 13.6669 7.30059 13.5673 6.57965C13.4676 5.85871 13.1956 5.17243 12.7742 4.57898C12.3529 3.98553 11.7947 3.5024 11.147 3.17055C10.4993 2.8387 9.78106 2.66791 9.05328 2.67265C8.53104 2.6737 8.01302 2.7662 7.52269 2.94597C7.42582 2.98089 7.34679 3.05287 7.30299 3.14607C7.25919 3.23926 7.2542 3.34604 7.28913 3.44291C7.32405 3.53978 7.39603 3.61881 7.48923 3.66261C7.58242 3.70642 7.6892 3.7114 7.78607 3.67648V3.68641Z" fill="#000222" stroke="#000222" stroke-width="0.233333"/>
<path d="M10.7331 8.93899C10.7746 8.95398 10.8182 8.96236 10.8623 8.96384C10.9429 8.96432 11.0216 8.93969 11.0875 8.89338C11.1534 8.84707 11.2032 8.78138 11.2301 8.70543C11.3407 8.391 11.3962 8.05979 11.3941 7.72645C11.3901 6.9708 11.0865 6.24759 10.5498 5.71558C10.0132 5.18358 9.28732 4.88627 8.53166 4.88891C8.20308 4.89053 7.87714 4.94765 7.56759 5.05787C7.47222 5.09477 7.39473 5.16699 7.35123 5.25954C7.30774 5.35209 7.30158 5.45784 7.33403 5.55481C7.36989 5.65098 7.44199 5.72927 7.53487 5.77293C7.62776 5.81658 7.73405 5.82213 7.83097 5.78838C8.05328 5.70405 8.28892 5.66028 8.52669 5.65917C8.85773 5.66009 9.18373 5.74029 9.4774 5.89308C9.77107 6.04587 10.0239 6.26679 10.2146 6.53734C10.4054 6.8079 10.5285 7.12021 10.5738 7.44814C10.619 7.77607 10.5851 8.11007 10.4747 8.42218C10.4546 8.47287 10.4454 8.52724 10.4478 8.58173C10.4501 8.63621 10.464 8.68959 10.4883 8.73837C10.5127 8.78715 10.5471 8.83023 10.5893 8.8648C10.6315 8.89937 10.6805 8.92465 10.7331 8.93899Z" fill="#000222" stroke="#000222" stroke-width="0.233333"/>
</svg>
